<?xml version="1.0" ?>

<!-- Uploaded to: SVG Repo, www.svgrepo.com, Generator: SVG Repo Mixer Tools -->
<svg width="800px" height="800px" viewBox="0 0 128 128" version="1.1" xml:space="preserve" xmlns="http://www.w3.org/2000/svg" xmlns:xlink="http://www.w3.org/1999/xlink">

<style type="text/css">
	.st0{fill:#69A401;}
	.st1{fill:#EFE691;}
	.st2{fill:#B20000;}
	.st3{fill:#DF1801;}
	.st4{fill:#F40603;}
	.st5{fill:#FFEEEE;}
	.st6{fill:#847B3C;}
	.st7{fill:#CEB600;}
	.st8{fill:#F8CD02;}
	.st9{fill:#F7C800;}
	.st10{fill:#F6E8B9;}
	.st11{fill:#F6E9CA;}
	.st12{fill:#CF8A11;}
	.st13{fill:#286F0D;}
	.st14{fill:#63271D;}
	.st15{fill:#EB8102;}
	.st16{fill:#E37303;}
	.st17{fill:#D97102;}
	.st18{fill:#BF6302;}
	.st19{fill:#EA9735;}
	.st20{fill:#3E1A01;}
	.st21{fill:#C96A0A;}
	.st22{fill:#CE2335;}
	.st23{fill:#C0242D;}
	.st24{fill:#BA1A23;}
	.st25{fill:#F9DCC7;}
	.st26{fill:#DBE2CE;}
	.st27{fill:#7D4B12;}
	.st28{fill:#75480C;}
	.st29{fill:#66410C;}
	.st30{fill:#88550D;}
	.st31{fill:#FFFEE9;}
	.st32{fill:#9B9F1A;}
	.st33{fill:#F6E177;}
	.st34{fill:#443A00;}
	.st35{fill:#305209;}
	.st36{fill:#7F7C04;}
	.st37{fill:#BAB424;}
	.st38{fill:#F7CF43;}
	.st39{fill:#DE940E;}
	.st40{fill:#5F570A;}
	.st41{fill:#175424;}
	.st42{fill:#215B25;}
	.st43{fill:#1B5020;}
	.st44{fill:#C0F9C0;}
	.st45{fill:#F3DA78;}
	.st46{fill:#BC441C;}
	.st47{fill:#148E2E;}
	.st48{fill:#283767;}
	.st49{fill:#425285;}
	.st50{fill:#CFDFFF;}
	.st51{fill:#1F2C55;}
	.st52{fill:#776220;}
	.st53{fill:#90236B;}
	.st54{fill:#5D1A47;}
	.st55{fill:#99499A;}
	.st56{fill:#FCCAFA;}
	.st57{fill:#917C31;}
	.st58{fill:#F4C435;}
	.st59{fill:#F1BC02;}
	.st60{fill:#F0B102;}
	.st61{fill:#F1F7BA;}
	.st62{fill:#E3DCB9;}
	.st63{fill:#BD6800;}
	.st64{fill:#E19704;}
	.st65{fill:#B2CA2B;}
	.st66{fill:#AFC20F;}
	.st67{fill:#B9CB00;}
	.st68{fill:#E5F392;}
	.st69{fill:#F78202;}
	.st70{fill:#F79613;}
	.st71{fill:#331F07;}
	.st72{fill:#402B16;}
	.st73{fill:#669404;}
	.st74{fill:#F58E13;}
	.st75{fill:#D87117;}
	.st76{fill:#216604;}
	.st77{fill:#286D08;}
	.st78{fill:#C8C625;}
	.st79{fill:#2C441F;}
	.st80{fill:#F1E6BF;}
	.st81{fill:#F2BE2E;}
	.st82{fill:#BF8F33;}
	.st83{fill:#568804;}
	.st84{fill:#669614;}
	.st85{fill:#688E0C;}
	.st86{fill:#4C7005;}
	.st87{fill:#A0CA49;}
	.st88{fill:#99BD70;}
	.st89{fill:#78AA25;}
	.st90{fill:#4B7C23;}
	.st91{fill:#EADBC8;}
	.st92{fill:#F0D5B0;}
	.st93{fill:#DF2B2B;}
	.st94{fill:#D1262C;}
	.st95{fill:#B7252C;}
	.st96{fill:#46670C;}
	.st97{fill:#F49D5B;}
	.st98{fill:#F57A55;}
	.st99{fill:#F1C3A7;}
	.st100{fill:#CC0917;}
	.st101{fill:#DC1035;}
	.st102{fill:#9BAC0F;}
	.st103{fill:#667A1D;}
	.st104{fill:#7A9D18;}
	.st105{fill:#F6F7E6;}
	.st106{fill:#F0194D;}
	.st107{fill:#362420;}
	.st108{fill:#530618;}
	.st109{fill:#44041A;}
	.st110{fill:#490419;}
	.st111{fill:#F8A459;}
	.st112{fill:#871B22;}
	.st113{fill:#600613;}
	.st114{fill:#F8C790;}
	.st115{fill:#447832;}
	.st116{fill:#7C473D;}
	.st117{fill:#441432;}
	.st118{fill:#51163F;}
	.st119{fill:#5B1A41;}
	.st120{fill:#FCEBF9;}
	.st121{fill:#ECE5CE;}
	.st122{fill:#BC3E2C;}
	.st123{fill:#A60F26;}
	.st124{fill:#C61632;}
	.st125{fill:#BD1331;}
	.st126{fill:#F8B772;}
	.st127{fill:#F7DDAC;}
	.st128{fill:#850E11;}
	.st129{fill:#191200;}
	.st130{fill:#553D2D;}
	.st131{fill:#F9E2D2;}
	.st132{fill:#CA8937;}
	.st133{fill:#462D16;}
	.st134{fill:#6D8916;}
	.st135{fill:#96B54E;}
	.st136{fill:#E3E2DE;}
	.st137{fill:#261811;}
	.st138{fill:#525C11;}
	.st139{fill:#14581E;}
	.st140{fill:#3D7712;}
	.st141{fill:#9BC148;}
	.st142{fill:#E22434;}
	.st143{fill:#C6DD9E;}
	.st144{fill:#F89A07;}
	.st145{fill:#F7A410;}
	.st146{fill:#F8AB19;}
	.st147{fill:#F7B81C;}
	.st148{fill:#E5870A;}
	.st149{fill:#97A304;}
	.st150{fill:#A88C5C;}
	.st151{fill:#ADC21E;}
	.st152{fill:#A3BA0B;}
	.st153{fill:#8D9E08;}
	.st154{fill:#E0DAB9;}
	.st155{fill:#684219;}
	.st156{fill:#777F05;}
	.st157{fill:#F2E9C4;}
	.st158{fill:#CBB465;}
	.st159{fill:#FFF5CA;}
	.st160{fill:#E52828;}
	.st161{fill:#F87302;}
	.st162{fill:#FF7B22;}
	.st163{fill:#FC7F10;}
	.st164{fill:#F8A200;}
	.st165{fill:#F8DC91;}
	.st166{fill:#FFFFFF;}
	.st167{fill:#F5D7D5;}
	.st168{fill:#EDA07A;}
	.st169{fill:#FCBEBE;}
	.st170{fill:#EAD991;}
	.st171{fill:#582612;}
</style>

<g id="_x33_0_Mulberry"/>

<g id="_x32_9_Star_Fruit"/>

<g id="_x32_8_Apricot"/>

<g id="_x32_7_Litchi"/>

<g id="_x32_6_Kiwi">

<g id="XMLID_242_">

<g id="XMLID_170_">

<g id="XMLID_121_">

<path class="st13" d="M38.409,11.423c-3.604,5.339-4.047,11.579-1.828,17.009      c6.428-0.806,12.409-4.084,16.013-9.423S56.641,7.43,54.422,2C47.994,2.806,42.013,6.084,38.409,11.423z" id="XMLID_124_"/>

<path class="st14" d="M37.065,41.79c-1.104,0-2-0.896-2-2v-7.397c0-4.965-2.604-9.556-6.965-12.279      c-0.937-0.585-1.222-1.819-0.637-2.756c0.585-0.937,1.818-1.222,2.756-0.637c5.539,3.459,8.846,9.318,8.846,15.672v7.397      C39.065,40.895,38.17,41.79,37.065,41.79z"/>

</g>

<ellipse class="st27" cx="37.57" cy="75.715" id="XMLID_119_" rx="31.57" ry="38.311"/>

<path class="st28" d="M19.464,75.715c0-18.354,10.638-33.685,24.838-37.43c-2.17-0.572-4.421-0.882-6.732-0.882     C20.134,37.403,6,54.556,6,75.715c0,21.159,14.134,38.311,31.57,38.311c2.311,0,4.562-0.31,6.732-0.882     C30.102,109.4,19.464,94.069,19.464,75.715z" id="XMLID_1720_"/>

<path class="st29" d="M13.25,75.715c0-19.67,12.218-35.869,27.945-38.052c-1.19-0.165-2.398-0.259-3.625-0.259     C20.134,37.403,6,54.556,6,75.715c0,21.159,14.134,38.311,31.57,38.311c1.227,0,2.435-0.094,3.625-0.259     C25.468,111.584,13.25,95.385,13.25,75.715z" id="XMLID_1689_"/>

<path class="st30" d="M28.99,49.896c2.899,3.085,8.454,9.823,16.387,0c0,0,6.555-0.662,10.365-5.501     c-5.139-4.399-11.404-6.992-18.171-6.992c-6.67,0-12.853,2.517-17.951,6.802C21.001,46.875,23.692,49.526,28.99,49.896z" id="XMLID_174_"/>

<path class="st31" d="M19.587,89.81c-0.897,0-1.714-0.608-1.939-1.519c-0.926-3.729-1.395-7.612-1.395-11.543     c0-5.262,0.83-10.378,2.468-15.208c0.354-1.046,1.49-1.602,2.536-1.252c1.046,0.355,1.606,1.49,1.252,2.537     c-1.497,4.414-2.256,9.099-2.256,13.923c0,3.605,0.43,7.165,1.277,10.58c0.266,1.071-0.387,2.156-1.459,2.423     C19.908,89.791,19.746,89.81,19.587,89.81z"/>

<path class="st31" d="M24.53,98.22c-0.53,0-1.03-0.21-1.41-0.59c-0.1-0.09-0.18-0.19-0.25-0.3c-0.08-0.11-0.14-0.23-0.19-0.351     c-0.05-0.12-0.08-0.239-0.11-0.37c-0.03-0.13-0.04-0.26-0.04-0.39s0.02-0.26,0.04-0.39c0.03-0.13,0.06-0.261,0.11-0.38     c0.05-0.12,0.12-0.23,0.19-0.341c0.07-0.109,0.15-0.21,0.25-0.31c0.09-0.09,0.19-0.17,0.3-0.24c0.11-0.08,0.23-0.14,0.35-0.189     c0.12-0.051,0.24-0.09,0.37-0.11c0.26-0.06,0.52-0.06,0.78,0c0.13,0.021,0.26,0.06,0.38,0.11c0.12,0.05,0.23,0.109,0.34,0.189     c0.11,0.07,0.21,0.15,0.31,0.24c0.09,0.1,0.17,0.2,0.24,0.31c0.08,0.11,0.14,0.221,0.19,0.341c0.05,0.119,0.09,0.25,0.11,0.38     c0.03,0.13,0.04,0.26,0.04,0.39s-0.01,0.26-0.04,0.39c-0.02,0.131-0.06,0.25-0.11,0.37c-0.05,0.12-0.11,0.24-0.18,0.351     c-0.08,0.109-0.16,0.21-0.25,0.3c-0.1,0.1-0.2,0.18-0.31,0.25c-0.11,0.07-0.22,0.14-0.34,0.189c-0.12,0.051-0.25,0.08-0.38,0.11     C24.8,98.21,24.66,98.22,24.53,98.22z"/>

</g>

<g id="XMLID_241_">

<path class="st32" d="M122,95.167C122,112.196,107.958,126,90.636,126s-30.973-14.208-31.364-30.833     c-0.4-17.024,14.042-30.833,31.364-30.833S122,78.139,122,95.167z" id="XMLID_171_"/>

<g id="XMLID_173_">

<ellipse class="st33" cx="90.636" cy="93.167" id="XMLID_172_" rx="8.083" ry="7.894"/>

<path class="st29" d="M90.636,121.867c-16.615,0-30.203-12.702-31.286-28.766      c-0.046,0.684-0.078,1.371-0.078,2.067c0,17.029,14.042,30.833,31.364,30.833S122,112.196,122,95.167      c0-0.695-0.032-1.383-0.078-2.067C120.839,109.164,107.251,121.867,90.636,121.867z" id="XMLID_1867_"/>

<g id="XMLID_33_">

<path class="st34" d="M90.636,79.588c-1.104,0-2-0.896-2-2v-7.297c0-1.104,0.896-2,2-2s2,0.896,2,2v7.297       C92.636,78.692,91.741,79.588,90.636,79.588z"/>

<path class="st34" d="M79.357,84.151c-0.504,0-1.008-0.189-1.397-0.569l-5.283-5.16c-0.79-0.771-0.805-2.038-0.033-2.828       c0.772-0.791,2.039-0.805,2.828-0.033l5.283,5.16c0.79,0.771,0.805,2.038,0.033,2.828       C80.396,83.95,79.876,84.151,79.357,84.151z"/>

<path class="st34" d="M74.685,95.167h-7.471c-1.104,0-2-0.896-2-2s0.896-2,2-2h7.471c1.104,0,2,0.896,2,2       S75.79,95.167,74.685,95.167z"/>

<path class="st34" d="M74.074,111.343c-0.52,0-1.039-0.201-1.431-0.603c-0.772-0.79-0.757-2.057,0.033-2.828l5.283-5.159       c0.791-0.771,2.058-0.757,2.828,0.033c0.772,0.79,0.757,2.057-0.033,2.828l-5.283,5.159       C75.083,111.153,74.578,111.343,74.074,111.343z"/>

<path class="st34" d="M90.636,118.043c-1.104,0-2-0.896-2-2v-7.297c0-1.104,0.896-2,2-2s2,0.896,2,2v7.297       C92.636,117.147,91.741,118.043,90.636,118.043z"/>

<path class="st34" d="M107.198,111.343c-0.504,0-1.008-0.189-1.397-0.569l-5.283-5.159c-0.79-0.771-0.805-2.038-0.033-2.828       c0.771-0.79,2.038-0.805,2.828-0.033l5.283,5.159c0.79,0.771,0.805,2.038,0.033,2.828       C108.237,111.142,107.718,111.343,107.198,111.343z"/>

<path class="st34" d="M114.059,95.167h-7.471c-1.104,0-2-0.896-2-2s0.896-2,2-2h7.471c1.104,0,2,0.896,2,2       S115.163,95.167,114.059,95.167z"/>

<path class="st34" d="M101.916,84.151c-0.52,0-1.039-0.201-1.431-0.603c-0.772-0.79-0.757-2.057,0.033-2.828l5.283-5.16       c0.791-0.771,2.057-0.757,2.828,0.033c0.772,0.79,0.757,2.057-0.033,2.828l-5.283,5.16       C102.924,83.962,102.419,84.151,101.916,84.151z"/>

</g>

</g>

</g>

</g>

</g>

<g id="_x32_5_Jackfruit"/>

<g id="_x32_4_Avacado"/>

<g id="_x32_3_Blueberry"/>

<g id="_x32_2_Purple_Grapes"/>

<g id="_x32_1_Melon"/>

<g id="_x32_0_Green_Grapes"/>

<g id="_x31_9_Papaya"/>

<g id="_x31_8_Pineapple"/>

<g id="_x31_7_Banana"/>

<g id="_x31_6_Tender_Coconut"/>

<g id="_x31_5_Strawberry"/>

<g id="_x31_4_Dragon_Fruit"/>

<g id="_x31_3_Plum"/>

<g id="_x31_2_Fig"/>

<g id="_x31_1_Peach"/>

<g id="_x31_0_Cherry"/>

<g id="_x30_9_Sapota"/>

<g id="_x30_8_Custard_Apple"/>

<g id="_x30_7_Watermelon"/>

<g id="_x30_6_Mango"/>

<g id="_x30_5_Pear"/>

<g id="_x30_4_Guava"/>

<g id="_x30_3_Pomegranate"/>

<g id="_x30_2_Orange"/>

<g id="_x30_1_Apple"/>

</svg>